<svg width="27" height="27" viewBox="0 0 27 27" fill="none" xmlns="http://www.w3.org/2000/svg">
<path d="M22.5 10.6875V4.5H16.3125M16.5938 10.4062L21.9375 5.0625M18 15.75C18 17.5402 17.2888 19.2571 16.023 20.523C14.7571 21.7888 13.0402 22.5 11.25 22.5C9.45979 22.5 7.7429 21.7888 6.47703 20.523C5.21116 19.2571 4.5 17.5402 4.5 15.75C4.5 13.9598 5.21116 12.2429 6.47703 10.977C7.7429 9.71116 9.45979 9 11.25 9C13.0402 9 14.7571 9.71116 16.023 10.977C17.2888 12.2429 18 13.9598 18 15.75Z" stroke="black" stroke-width="2" stroke-linecap="square"/>
</svg>
