<svg width="23" height="27" viewBox="0 0 23 27" fill="none" xmlns="http://www.w3.org/2000/svg">
<path d="M14.5436 1.46429C14.5436 1.32887 14.5862 1.21763 14.6715 1.13058C14.7567 1.04353 14.8656 1 14.9982 1H19.0891C19.3353 1 19.5483 1.09189 19.7283 1.27567C19.9082 1.45945 19.9982 1.67708 19.9982 1.92857V6.10714C19.9982 6.24256 19.9555 6.35379 19.8703 6.44085C19.7851 6.5279 19.6762 6.57143 19.5436 6.57143H18.6345C18.5019 6.57143 18.393 6.5279 18.3078 6.44085C18.2226 6.35379 18.18 6.24256 18.18 6.10714V4.16295L14.572 7.86272C15.7652 9.391 16.3618 11.1272 16.3618 13.0714C16.3618 15.2091 15.6634 17.0686 14.2666 18.6501C12.8698 20.2316 11.144 21.1384 9.08906 21.3705V23.2857H10.4527C10.5853 23.2857 10.6942 23.3292 10.7794 23.4163C10.8646 23.5033 10.9072 23.6146 10.9072 23.75V24.6786C10.9072 24.814 10.8646 24.9252 10.7794 25.0123C10.6942 25.0993 10.5853 25.1429 10.4527 25.1429H9.08906V26.5357C9.08906 26.6711 9.04645 26.7824 8.96122 26.8694C8.876 26.9565 8.76709 27 8.63452 27H7.72543C7.59285 27 7.48395 26.9565 7.39872 26.8694C7.3135 26.7824 7.27088 26.6711 7.27088 26.5357V25.1429H5.90725C5.77467 25.1429 5.66577 25.0993 5.58054 25.0123C5.49531 24.9252 5.4527 24.814 5.4527 24.6786V23.75C5.4527 23.6146 5.49531 23.5033 5.58054 23.4163C5.66577 23.3292 5.77467 23.2857 5.90725 23.2857H7.27088V21.3705C5.8599 21.2158 4.57912 20.7176 3.42855 19.8761C2.27798 19.0346 1.39494 17.9537 0.779405 16.6334C0.163875 15.3131 -0.087072 13.9033 0.0265643 12.404C0.17808 10.4308 0.935655 8.72117 2.29929 7.27511C3.66293 5.82905 5.30592 4.99479 7.22827 4.77232C8.34569 4.6369 9.42524 4.72879 10.4669 5.04799C11.5086 5.36719 12.4461 5.86533 13.2794 6.54241L16.9016 2.85714H14.9982C14.8656 2.85714 14.7567 2.81362 14.6715 2.72656C14.5862 2.63951 14.5436 2.52827 14.5436 2.39286V1.46429ZM8.17997 19.5714C9.93187 19.5714 11.4304 18.9355 12.6757 17.6635C13.921 16.3916 14.5436 14.8609 14.5436 13.0714C14.5436 11.282 13.921 9.7513 12.6757 8.47935C11.4304 7.2074 9.93187 6.57143 8.17997 6.57143C6.42808 6.57143 4.9295 7.2074 3.68423 8.47935C2.43897 9.7513 1.81634 11.282 1.81634 13.0714C1.81634 14.8609 2.43897 16.3916 3.68423 17.6635C4.9295 18.9355 6.42808 19.5714 8.17997 19.5714Z" fill="black"/>
</svg>
